# xmcd
#
# Track frame offsets:
#	150
#	18876
#	35619
#	50180
#	65083
#	80917
#	96265
#	112562
#	133679
#	153672
#	170618
#	184058
#	200263
#	217618
#	234888
#	249743
#	268030
#	291235
#	306416
#
# Disc length: 4278 seconds
#
# Revision: 0
# Processed by: cddbd v1.5.2PL0 Copyright (c) Steve Scherf et al.
# Submitted via: EasyCDDAExtractor 5.0.5.1
#
DISCID=1310b413
DTITLE=Various Artist -  HOTT COUNTRY # 135
DYEAR=1900
DGENRE=Country
TTITLE0=Johnny Reid - PICKUP TRUCK
TTITLE1=Adam Gregory - ONE BREATH
TTITLE2=Jack Ingram - MEASURE OF A MAN
TTITLE3=Brad Johner - YOUR LOVE IS MY LUCK
TTITLE4=Prairie Oyster - I THREW IT ALL AWAY
TTITLE5=Damian Marshall - NOT EVEN A LITTLE
TTITLE6=Johnny Reid - Kickin Stones
TTITLE7=Los Lonley Boys Ft W. Nelson - OUTLAWS
TTITLE8=Keith Urban - I TOLD YOU SO
TTITLE9=Trace Adkins - I WANNA FEEL SOMETHING
TTITLE10=Wil - Wedding Dress (radio edit)
TTITLE11=Trent Tomlinson - JUST MIGHT HAVE HER RADIO ON
TTITLE12=Wreckers - TENNESSEE
TTITLE13=Halfway To Hazard - DAISY
TTITLE14=Flynnville Train - LAST GOOD TIME
TTITLE15=Jim Cuddy - MAYBE SOMETIME
TTITLE16=Wil - December
TTITLE17=Shane Yellowbird - THEY'RE ALL ABOUT YOU
TTITLE18=Nitty Gritty Dirt Band - DANCE LITTLE JEAN
EXTD=September 2006\n
EXTT0=
EXTT1=
EXTT2=
EXTT3=
EXTT4=
EXTT5=
EXTT6=
EXTT7=
EXTT8=
EXTT9=
EXTT10=
EXTT11=
EXTT12=
EXTT13=
EXTT14=
EXTT15=
EXTT16=
EXTT17=
EXTT18=
PLAYORDER=
